G04 #@! TF.GenerationSoftware,KiCad,Pcbnew,(5.1.10)-1*
G04 #@! TF.CreationDate,2022-06-15T22:58:40-06:00*
G04 #@! TF.ProjectId,Control,436f6e74-726f-46c2-9e6b-696361645f70,rev?*
G04 #@! TF.SameCoordinates,Original*
G04 #@! TF.FileFunction,Copper,L1,Top*
G04 #@! TF.FilePolarity,Positive*
%FSLAX46Y46*%
G04 Gerber Fmt 4.6, Leading zero omitted, Abs format (unit mm)*
G04 Created by KiCad (PCBNEW (5.1.10)-1) date 2022-06-15 22:58:40*
%MOMM*%
%LPD*%
G01*
G04 APERTURE LIST*
G04 #@! TA.AperFunction,NonConductor*
%ADD10C,0.750000*%
G04 #@! TD*
G04 #@! TA.AperFunction,EtchedComponent*
%ADD11C,0.010000*%
G04 #@! TD*
G04 #@! TA.AperFunction,ComponentPad*
%ADD12C,3.500000*%
G04 #@! TD*
G04 #@! TA.AperFunction,ComponentPad*
%ADD13O,2.100000X2.900000*%
G04 #@! TD*
G04 #@! TA.AperFunction,ComponentPad*
%ADD14R,2.100000X2.900000*%
G04 #@! TD*
G04 #@! TA.AperFunction,ComponentPad*
%ADD15O,2.500000X2.500000*%
G04 #@! TD*
G04 #@! TA.AperFunction,ComponentPad*
%ADD16R,3.500000X3.500000*%
G04 #@! TD*
G04 #@! TA.AperFunction,ComponentPad*
%ADD17R,2.000000X2.500000*%
G04 #@! TD*
G04 #@! TA.AperFunction,ComponentPad*
%ADD18O,2.000000X2.500000*%
G04 #@! TD*
G04 #@! TA.AperFunction,ComponentPad*
%ADD19R,2.500000X1.600000*%
G04 #@! TD*
G04 #@! TA.AperFunction,ComponentPad*
%ADD20O,2.500000X1.700000*%
G04 #@! TD*
G04 #@! TA.AperFunction,ComponentPad*
%ADD21C,2.300000*%
G04 #@! TD*
G04 #@! TA.AperFunction,ComponentPad*
%ADD22C,2.000000*%
G04 #@! TD*
G04 #@! TA.AperFunction,Conductor*
%ADD23C,1.300000*%
G04 #@! TD*
G04 APERTURE END LIST*
D10*
X54411428Y-42592571D02*
X54554285Y-42735428D01*
X54697142Y-43164000D01*
X54697142Y-43449714D01*
X54554285Y-43878285D01*
X54268571Y-44164000D01*
X53982857Y-44306857D01*
X53411428Y-44449714D01*
X52982857Y-44449714D01*
X52411428Y-44306857D01*
X52125714Y-44164000D01*
X51840000Y-43878285D01*
X51697142Y-43449714D01*
X51697142Y-43164000D01*
X51840000Y-42735428D01*
X51982857Y-42592571D01*
X53125714Y-41306857D02*
X53125714Y-40306857D01*
X54697142Y-39878285D02*
X54697142Y-41306857D01*
X51697142Y-41306857D01*
X51697142Y-39878285D01*
D11*
G36*
X74406536Y-79404427D02*
G01*
X74519118Y-80001618D01*
X74934531Y-80172865D01*
X75349945Y-80344112D01*
X75848302Y-80005233D01*
X75987869Y-79910877D01*
X76114029Y-79826630D01*
X76220896Y-79756338D01*
X76302583Y-79703847D01*
X76353202Y-79673004D01*
X76366987Y-79666353D01*
X76391821Y-79683458D01*
X76444889Y-79730744D01*
X76520241Y-79802172D01*
X76611930Y-79891700D01*
X76714008Y-79993289D01*
X76820527Y-80100898D01*
X76925537Y-80208487D01*
X77023092Y-80310015D01*
X77107243Y-80399441D01*
X77172041Y-80470726D01*
X77211538Y-80517828D01*
X77220981Y-80533592D01*
X77207392Y-80562653D01*
X77169294Y-80626321D01*
X77110694Y-80718367D01*
X77035598Y-80832564D01*
X76948009Y-80962684D01*
X76897255Y-81036901D01*
X76804746Y-81172422D01*
X76722541Y-81294716D01*
X76654631Y-81397695D01*
X76605001Y-81475273D01*
X76577641Y-81521361D01*
X76573530Y-81531047D01*
X76582850Y-81558574D01*
X76608255Y-81622728D01*
X76645912Y-81714490D01*
X76691987Y-81824839D01*
X76742647Y-81944755D01*
X76794060Y-82065219D01*
X76842390Y-82177209D01*
X76883807Y-82271707D01*
X76914475Y-82339692D01*
X76930562Y-82372143D01*
X76931512Y-82373420D01*
X76956773Y-82379617D01*
X77024046Y-82393440D01*
X77126361Y-82413532D01*
X77256742Y-82438534D01*
X77408217Y-82467086D01*
X77496594Y-82483551D01*
X77658453Y-82514369D01*
X77804650Y-82543694D01*
X77927788Y-82569921D01*
X78020470Y-82591446D01*
X78075302Y-82606665D01*
X78086324Y-82611493D01*
X78097119Y-82644174D01*
X78105830Y-82717985D01*
X78112461Y-82824292D01*
X78117019Y-82954467D01*
X78119510Y-83099876D01*
X78119939Y-83251890D01*
X78118312Y-83401877D01*
X78114636Y-83541206D01*
X78108916Y-83661245D01*
X78101158Y-83753365D01*
X78091369Y-83808932D01*
X78085497Y-83820500D01*
X78050400Y-83834365D01*
X77976029Y-83854188D01*
X77872224Y-83877639D01*
X77748820Y-83902391D01*
X77705742Y-83910398D01*
X77498048Y-83948441D01*
X77333985Y-83979079D01*
X77208131Y-84003529D01*
X77115066Y-84023009D01*
X77049368Y-84038736D01*
X77005618Y-84051928D01*
X76978393Y-84063804D01*
X76962273Y-84075580D01*
X76960018Y-84077908D01*
X76937504Y-84115400D01*
X76903159Y-84188365D01*
X76860412Y-84287867D01*
X76812693Y-84404973D01*
X76763431Y-84530748D01*
X76716056Y-84656257D01*
X76673996Y-84772565D01*
X76640681Y-84870739D01*
X76619542Y-84941843D01*
X76614006Y-84976942D01*
X76614467Y-84978172D01*
X76633224Y-85006861D01*
X76675777Y-85069985D01*
X76737654Y-85160973D01*
X76814383Y-85273255D01*
X76901492Y-85400260D01*
X76926299Y-85436353D01*
X77014753Y-85567203D01*
X77092589Y-85686591D01*
X77155567Y-85787662D01*
X77199446Y-85863559D01*
X77219986Y-85907427D01*
X77220981Y-85912817D01*
X77203723Y-85941144D01*
X77156036Y-85997261D01*
X77084051Y-86075137D01*
X76993898Y-86168740D01*
X76891706Y-86272041D01*
X76783606Y-86379006D01*
X76675729Y-86483606D01*
X76574205Y-86579809D01*
X76485163Y-86661584D01*
X76414734Y-86722900D01*
X76369048Y-86757726D01*
X76356410Y-86763412D01*
X76326992Y-86750020D01*
X76266762Y-86713899D01*
X76185530Y-86661136D01*
X76123031Y-86618667D01*
X76009786Y-86540740D01*
X75875675Y-86448984D01*
X75741156Y-86357375D01*
X75668834Y-86308346D01*
X75424039Y-86142770D01*
X75218551Y-86253875D01*
X75124937Y-86302548D01*
X75045331Y-86340381D01*
X74991468Y-86361958D01*
X74977758Y-86364961D01*
X74961271Y-86342793D01*
X74928746Y-86280149D01*
X74882609Y-86182809D01*
X74825291Y-86056549D01*
X74759217Y-85907150D01*
X74686816Y-85740388D01*
X74610517Y-85562042D01*
X74532747Y-85377891D01*
X74455935Y-85193712D01*
X74382507Y-85015285D01*
X74314893Y-84848387D01*
X74255521Y-84698797D01*
X74206817Y-84572293D01*
X74171211Y-84474654D01*
X74151131Y-84411657D01*
X74147901Y-84390021D01*
X74173497Y-84362424D01*
X74229539Y-84317625D01*
X74304312Y-84264934D01*
X74310588Y-84260765D01*
X74503846Y-84106069D01*
X74659675Y-83925591D01*
X74776725Y-83725102D01*
X74853646Y-83510374D01*
X74889087Y-83287177D01*
X74881698Y-83061281D01*
X74830128Y-82838459D01*
X74733027Y-82624479D01*
X74704459Y-82577664D01*
X74555869Y-82388618D01*
X74380328Y-82236812D01*
X74183911Y-82123034D01*
X73972694Y-82048075D01*
X73752754Y-82012722D01*
X73530164Y-82017767D01*
X73311002Y-82063999D01*
X73101343Y-82152206D01*
X72907262Y-82283179D01*
X72847227Y-82336337D01*
X72694436Y-82502739D01*
X72583098Y-82677912D01*
X72506724Y-82874266D01*
X72464188Y-83068717D01*
X72453687Y-83287342D01*
X72488701Y-83507052D01*
X72565674Y-83720420D01*
X72681048Y-83920022D01*
X72831266Y-84098429D01*
X73012774Y-84248217D01*
X73036628Y-84264006D01*
X73112202Y-84315712D01*
X73169652Y-84360512D01*
X73197118Y-84389117D01*
X73197518Y-84390021D01*
X73191621Y-84420964D01*
X73168246Y-84491191D01*
X73129822Y-84594925D01*
X73078778Y-84726390D01*
X73017543Y-84879807D01*
X72948545Y-85049401D01*
X72874214Y-85229393D01*
X72796979Y-85414008D01*
X72719269Y-85597468D01*
X72643512Y-85773996D01*
X72572138Y-85937814D01*
X72507575Y-86083147D01*
X72452253Y-86204217D01*
X72408601Y-86295247D01*
X72379047Y-86350460D01*
X72367145Y-86364961D01*
X72330778Y-86353669D01*
X72262731Y-86323385D01*
X72174737Y-86279520D01*
X72126351Y-86253875D01*
X71920864Y-86142770D01*
X71676069Y-86308346D01*
X71551107Y-86393170D01*
X71414296Y-86486516D01*
X71286089Y-86574408D01*
X71221872Y-86618667D01*
X71131552Y-86679318D01*
X71055072Y-86727381D01*
X71002408Y-86756770D01*
X70985303Y-86762982D01*
X70960406Y-86746223D01*
X70905306Y-86699436D01*
X70825344Y-86627480D01*
X70725861Y-86535212D01*
X70612201Y-86427490D01*
X70540316Y-86358326D01*
X70414552Y-86234757D01*
X70305864Y-86124234D01*
X70218646Y-86031485D01*
X70157290Y-85961237D01*
X70126192Y-85918220D01*
X70123209Y-85909490D01*
X70137054Y-85876284D01*
X70175313Y-85809142D01*
X70233742Y-85714863D01*
X70308098Y-85600245D01*
X70394136Y-85472083D01*
X70418603Y-85436353D01*
X70507755Y-85306489D01*
X70587739Y-85189569D01*
X70654081Y-85092162D01*
X70702312Y-85020839D01*
X70727958Y-84982170D01*
X70730436Y-84978172D01*
X70726730Y-84947355D01*
X70707062Y-84879599D01*
X70674861Y-84783839D01*
X70633556Y-84669009D01*
X70586576Y-84544044D01*
X70537350Y-84417879D01*
X70489309Y-84299448D01*
X70445882Y-84197685D01*
X70410497Y-84121526D01*
X70386585Y-84079904D01*
X70384885Y-84077908D01*
X70370263Y-84066013D01*
X70345566Y-84054250D01*
X70305373Y-84041401D01*
X70244264Y-84026249D01*
X70156818Y-84007576D01*
X70037613Y-83984165D01*
X69881228Y-83954797D01*
X69682244Y-83918255D01*
X69639161Y-83910398D01*
X69511471Y-83885727D01*
X69400154Y-83861593D01*
X69315046Y-83840324D01*
X69265984Y-83824248D01*
X69259406Y-83820500D01*
X69248565Y-83787273D01*
X69239754Y-83713021D01*
X69232977Y-83606376D01*
X69228241Y-83475967D01*
X69225551Y-83330427D01*
X69224914Y-83178386D01*
X69226335Y-83028476D01*
X69229821Y-82889328D01*
X69235377Y-82769572D01*
X69243009Y-82677841D01*
X69252723Y-82622766D01*
X69258579Y-82611493D01*
X69291181Y-82600123D01*
X69365419Y-82581624D01*
X69473897Y-82557602D01*
X69609218Y-82529662D01*
X69763986Y-82499408D01*
X69848308Y-82483551D01*
X70008297Y-82453644D01*
X70150968Y-82426550D01*
X70269349Y-82403631D01*
X70356466Y-82386243D01*
X70405346Y-82375747D01*
X70413391Y-82373420D01*
X70426988Y-82347186D01*
X70455730Y-82283995D01*
X70495786Y-82192877D01*
X70543325Y-82082857D01*
X70594516Y-81962965D01*
X70645527Y-81842227D01*
X70692527Y-81729671D01*
X70731685Y-81634326D01*
X70759170Y-81565217D01*
X70771150Y-81531374D01*
X70771373Y-81529895D01*
X70757792Y-81503197D01*
X70719716Y-81441760D01*
X70661148Y-81351689D01*
X70586089Y-81239090D01*
X70498541Y-81110070D01*
X70447648Y-81035961D01*
X70354910Y-80900077D01*
X70272542Y-80776709D01*
X70204562Y-80672097D01*
X70154989Y-80592483D01*
X70127843Y-80544107D01*
X70123922Y-80533262D01*
X70140776Y-80508020D01*
X70187369Y-80454124D01*
X70257749Y-80377613D01*
X70345966Y-80284523D01*
X70446066Y-80180895D01*
X70552099Y-80072764D01*
X70658112Y-79966170D01*
X70758153Y-79867150D01*
X70846271Y-79781742D01*
X70916514Y-79715985D01*
X70962929Y-79675916D01*
X70978457Y-79666353D01*
X71003740Y-79679800D01*
X71064212Y-79717575D01*
X71153993Y-79775835D01*
X71267204Y-79850734D01*
X71397964Y-79938425D01*
X71496600Y-80005233D01*
X71994958Y-80344112D01*
X72410371Y-80172865D01*
X72825785Y-80001618D01*
X72938367Y-79404427D01*
X73050950Y-78807235D01*
X74293953Y-78807235D01*
X74406536Y-79404427D01*
G37*
X74406536Y-79404427D02*
X74519118Y-80001618D01*
X74934531Y-80172865D01*
X75349945Y-80344112D01*
X75848302Y-80005233D01*
X75987869Y-79910877D01*
X76114029Y-79826630D01*
X76220896Y-79756338D01*
X76302583Y-79703847D01*
X76353202Y-79673004D01*
X76366987Y-79666353D01*
X76391821Y-79683458D01*
X76444889Y-79730744D01*
X76520241Y-79802172D01*
X76611930Y-79891700D01*
X76714008Y-79993289D01*
X76820527Y-80100898D01*
X76925537Y-80208487D01*
X77023092Y-80310015D01*
X77107243Y-80399441D01*
X77172041Y-80470726D01*
X77211538Y-80517828D01*
X77220981Y-80533592D01*
X77207392Y-80562653D01*
X77169294Y-80626321D01*
X77110694Y-80718367D01*
X77035598Y-80832564D01*
X76948009Y-80962684D01*
X76897255Y-81036901D01*
X76804746Y-81172422D01*
X76722541Y-81294716D01*
X76654631Y-81397695D01*
X76605001Y-81475273D01*
X76577641Y-81521361D01*
X76573530Y-81531047D01*
X76582850Y-81558574D01*
X76608255Y-81622728D01*
X76645912Y-81714490D01*
X76691987Y-81824839D01*
X76742647Y-81944755D01*
X76794060Y-82065219D01*
X76842390Y-82177209D01*
X76883807Y-82271707D01*
X76914475Y-82339692D01*
X76930562Y-82372143D01*
X76931512Y-82373420D01*
X76956773Y-82379617D01*
X77024046Y-82393440D01*
X77126361Y-82413532D01*
X77256742Y-82438534D01*
X77408217Y-82467086D01*
X77496594Y-82483551D01*
X77658453Y-82514369D01*
X77804650Y-82543694D01*
X77927788Y-82569921D01*
X78020470Y-82591446D01*
X78075302Y-82606665D01*
X78086324Y-82611493D01*
X78097119Y-82644174D01*
X78105830Y-82717985D01*
X78112461Y-82824292D01*
X78117019Y-82954467D01*
X78119510Y-83099876D01*
X78119939Y-83251890D01*
X78118312Y-83401877D01*
X78114636Y-83541206D01*
X78108916Y-83661245D01*
X78101158Y-83753365D01*
X78091369Y-83808932D01*
X78085497Y-83820500D01*
X78050400Y-83834365D01*
X77976029Y-83854188D01*
X77872224Y-83877639D01*
X77748820Y-83902391D01*
X77705742Y-83910398D01*
X77498048Y-83948441D01*
X77333985Y-83979079D01*
X77208131Y-84003529D01*
X77115066Y-84023009D01*
X77049368Y-84038736D01*
X77005618Y-84051928D01*
X76978393Y-84063804D01*
X76962273Y-84075580D01*
X76960018Y-84077908D01*
X76937504Y-84115400D01*
X76903159Y-84188365D01*
X76860412Y-84287867D01*
X76812693Y-84404973D01*
X76763431Y-84530748D01*
X76716056Y-84656257D01*
X76673996Y-84772565D01*
X76640681Y-84870739D01*
X76619542Y-84941843D01*
X76614006Y-84976942D01*
X76614467Y-84978172D01*
X76633224Y-85006861D01*
X76675777Y-85069985D01*
X76737654Y-85160973D01*
X76814383Y-85273255D01*
X76901492Y-85400260D01*
X76926299Y-85436353D01*
X77014753Y-85567203D01*
X77092589Y-85686591D01*
X77155567Y-85787662D01*
X77199446Y-85863559D01*
X77219986Y-85907427D01*
X77220981Y-85912817D01*
X77203723Y-85941144D01*
X77156036Y-85997261D01*
X77084051Y-86075137D01*
X76993898Y-86168740D01*
X76891706Y-86272041D01*
X76783606Y-86379006D01*
X76675729Y-86483606D01*
X76574205Y-86579809D01*
X76485163Y-86661584D01*
X76414734Y-86722900D01*
X76369048Y-86757726D01*
X76356410Y-86763412D01*
X76326992Y-86750020D01*
X76266762Y-86713899D01*
X76185530Y-86661136D01*
X76123031Y-86618667D01*
X76009786Y-86540740D01*
X75875675Y-86448984D01*
X75741156Y-86357375D01*
X75668834Y-86308346D01*
X75424039Y-86142770D01*
X75218551Y-86253875D01*
X75124937Y-86302548D01*
X75045331Y-86340381D01*
X74991468Y-86361958D01*
X74977758Y-86364961D01*
X74961271Y-86342793D01*
X74928746Y-86280149D01*
X74882609Y-86182809D01*
X74825291Y-86056549D01*
X74759217Y-85907150D01*
X74686816Y-85740388D01*
X74610517Y-85562042D01*
X74532747Y-85377891D01*
X74455935Y-85193712D01*
X74382507Y-85015285D01*
X74314893Y-84848387D01*
X74255521Y-84698797D01*
X74206817Y-84572293D01*
X74171211Y-84474654D01*
X74151131Y-84411657D01*
X74147901Y-84390021D01*
X74173497Y-84362424D01*
X74229539Y-84317625D01*
X74304312Y-84264934D01*
X74310588Y-84260765D01*
X74503846Y-84106069D01*
X74659675Y-83925591D01*
X74776725Y-83725102D01*
X74853646Y-83510374D01*
X74889087Y-83287177D01*
X74881698Y-83061281D01*
X74830128Y-82838459D01*
X74733027Y-82624479D01*
X74704459Y-82577664D01*
X74555869Y-82388618D01*
X74380328Y-82236812D01*
X74183911Y-82123034D01*
X73972694Y-82048075D01*
X73752754Y-82012722D01*
X73530164Y-82017767D01*
X73311002Y-82063999D01*
X73101343Y-82152206D01*
X72907262Y-82283179D01*
X72847227Y-82336337D01*
X72694436Y-82502739D01*
X72583098Y-82677912D01*
X72506724Y-82874266D01*
X72464188Y-83068717D01*
X72453687Y-83287342D01*
X72488701Y-83507052D01*
X72565674Y-83720420D01*
X72681048Y-83920022D01*
X72831266Y-84098429D01*
X73012774Y-84248217D01*
X73036628Y-84264006D01*
X73112202Y-84315712D01*
X73169652Y-84360512D01*
X73197118Y-84389117D01*
X73197518Y-84390021D01*
X73191621Y-84420964D01*
X73168246Y-84491191D01*
X73129822Y-84594925D01*
X73078778Y-84726390D01*
X73017543Y-84879807D01*
X72948545Y-85049401D01*
X72874214Y-85229393D01*
X72796979Y-85414008D01*
X72719269Y-85597468D01*
X72643512Y-85773996D01*
X72572138Y-85937814D01*
X72507575Y-86083147D01*
X72452253Y-86204217D01*
X72408601Y-86295247D01*
X72379047Y-86350460D01*
X72367145Y-86364961D01*
X72330778Y-86353669D01*
X72262731Y-86323385D01*
X72174737Y-86279520D01*
X72126351Y-86253875D01*
X71920864Y-86142770D01*
X71676069Y-86308346D01*
X71551107Y-86393170D01*
X71414296Y-86486516D01*
X71286089Y-86574408D01*
X71221872Y-86618667D01*
X71131552Y-86679318D01*
X71055072Y-86727381D01*
X71002408Y-86756770D01*
X70985303Y-86762982D01*
X70960406Y-86746223D01*
X70905306Y-86699436D01*
X70825344Y-86627480D01*
X70725861Y-86535212D01*
X70612201Y-86427490D01*
X70540316Y-86358326D01*
X70414552Y-86234757D01*
X70305864Y-86124234D01*
X70218646Y-86031485D01*
X70157290Y-85961237D01*
X70126192Y-85918220D01*
X70123209Y-85909490D01*
X70137054Y-85876284D01*
X70175313Y-85809142D01*
X70233742Y-85714863D01*
X70308098Y-85600245D01*
X70394136Y-85472083D01*
X70418603Y-85436353D01*
X70507755Y-85306489D01*
X70587739Y-85189569D01*
X70654081Y-85092162D01*
X70702312Y-85020839D01*
X70727958Y-84982170D01*
X70730436Y-84978172D01*
X70726730Y-84947355D01*
X70707062Y-84879599D01*
X70674861Y-84783839D01*
X70633556Y-84669009D01*
X70586576Y-84544044D01*
X70537350Y-84417879D01*
X70489309Y-84299448D01*
X70445882Y-84197685D01*
X70410497Y-84121526D01*
X70386585Y-84079904D01*
X70384885Y-84077908D01*
X70370263Y-84066013D01*
X70345566Y-84054250D01*
X70305373Y-84041401D01*
X70244264Y-84026249D01*
X70156818Y-84007576D01*
X70037613Y-83984165D01*
X69881228Y-83954797D01*
X69682244Y-83918255D01*
X69639161Y-83910398D01*
X69511471Y-83885727D01*
X69400154Y-83861593D01*
X69315046Y-83840324D01*
X69265984Y-83824248D01*
X69259406Y-83820500D01*
X69248565Y-83787273D01*
X69239754Y-83713021D01*
X69232977Y-83606376D01*
X69228241Y-83475967D01*
X69225551Y-83330427D01*
X69224914Y-83178386D01*
X69226335Y-83028476D01*
X69229821Y-82889328D01*
X69235377Y-82769572D01*
X69243009Y-82677841D01*
X69252723Y-82622766D01*
X69258579Y-82611493D01*
X69291181Y-82600123D01*
X69365419Y-82581624D01*
X69473897Y-82557602D01*
X69609218Y-82529662D01*
X69763986Y-82499408D01*
X69848308Y-82483551D01*
X70008297Y-82453644D01*
X70150968Y-82426550D01*
X70269349Y-82403631D01*
X70356466Y-82386243D01*
X70405346Y-82375747D01*
X70413391Y-82373420D01*
X70426988Y-82347186D01*
X70455730Y-82283995D01*
X70495786Y-82192877D01*
X70543325Y-82082857D01*
X70594516Y-81962965D01*
X70645527Y-81842227D01*
X70692527Y-81729671D01*
X70731685Y-81634326D01*
X70759170Y-81565217D01*
X70771150Y-81531374D01*
X70771373Y-81529895D01*
X70757792Y-81503197D01*
X70719716Y-81441760D01*
X70661148Y-81351689D01*
X70586089Y-81239090D01*
X70498541Y-81110070D01*
X70447648Y-81035961D01*
X70354910Y-80900077D01*
X70272542Y-80776709D01*
X70204562Y-80672097D01*
X70154989Y-80592483D01*
X70127843Y-80544107D01*
X70123922Y-80533262D01*
X70140776Y-80508020D01*
X70187369Y-80454124D01*
X70257749Y-80377613D01*
X70345966Y-80284523D01*
X70446066Y-80180895D01*
X70552099Y-80072764D01*
X70658112Y-79966170D01*
X70758153Y-79867150D01*
X70846271Y-79781742D01*
X70916514Y-79715985D01*
X70962929Y-79675916D01*
X70978457Y-79666353D01*
X71003740Y-79679800D01*
X71064212Y-79717575D01*
X71153993Y-79775835D01*
X71267204Y-79850734D01*
X71397964Y-79938425D01*
X71496600Y-80005233D01*
X71994958Y-80344112D01*
X72410371Y-80172865D01*
X72825785Y-80001618D01*
X72938367Y-79404427D01*
X73050950Y-78807235D01*
X74293953Y-78807235D01*
X74406536Y-79404427D01*
D12*
X60452000Y-34544000D03*
X65452000Y-34544000D03*
X65452000Y-29544000D03*
X60452000Y-29544000D03*
D13*
X107696000Y-62992000D03*
X105156000Y-62992000D03*
X102616000Y-62992000D03*
X100076000Y-62992000D03*
X97536000Y-62992000D03*
X94996000Y-62992000D03*
X92456000Y-62992000D03*
X89916000Y-62992000D03*
X89916000Y-85852000D03*
X92456000Y-85852000D03*
X94996000Y-85852000D03*
X97536000Y-85852000D03*
X100076000Y-85852000D03*
X102616000Y-85852000D03*
D14*
X107696000Y-85852000D03*
D13*
X105156000Y-85852000D03*
D15*
X58420000Y-42164000D03*
X71120000Y-42164000D03*
D12*
X47752000Y-56976000D03*
D16*
X47752000Y-61976000D03*
D17*
X62484000Y-45720000D03*
D18*
X95504000Y-53340000D03*
X65024000Y-45720000D03*
X92964000Y-53340000D03*
X67564000Y-45720000D03*
X90424000Y-53340000D03*
X70104000Y-45720000D03*
X87884000Y-53340000D03*
X72644000Y-45720000D03*
X85344000Y-53340000D03*
X75184000Y-45720000D03*
X82804000Y-53340000D03*
X77724000Y-45720000D03*
X80264000Y-53340000D03*
X80264000Y-45720000D03*
X77724000Y-53340000D03*
X82804000Y-45720000D03*
X75184000Y-53340000D03*
X85344000Y-45720000D03*
X72644000Y-53340000D03*
X87884000Y-45720000D03*
X70104000Y-53340000D03*
X90424000Y-45720000D03*
X67564000Y-53340000D03*
X92964000Y-45720000D03*
X65024000Y-53340000D03*
X95504000Y-45720000D03*
X62484000Y-53340000D03*
D15*
X104648000Y-52832000D03*
X104648000Y-40132000D03*
D16*
X98044000Y-39116000D03*
D12*
X93044000Y-39116000D03*
D16*
X59436000Y-73660000D03*
D12*
X54436000Y-73660000D03*
X49436000Y-73660000D03*
X113284000Y-42324000D03*
X113284000Y-47324000D03*
D16*
X113284000Y-52324000D03*
D19*
X77724000Y-61722000D03*
X77724000Y-64262000D03*
X77724000Y-66802000D03*
X77724000Y-69342000D03*
X77724000Y-71882000D03*
X77724000Y-74422000D03*
D20*
X67564000Y-61722000D03*
D19*
X67564000Y-64262000D03*
X67564000Y-66802000D03*
X67564000Y-69342000D03*
X67564000Y-71882000D03*
X67564000Y-74422000D03*
D21*
X83312000Y-34544000D03*
X87112000Y-34544000D03*
D22*
X82804000Y-28956000D03*
X80304000Y-28956000D03*
X85852000Y-28956000D03*
X88352000Y-28956000D03*
D23*
X80264000Y-45720000D02*
X80264000Y-46228000D01*
X88392000Y-89408000D02*
X83312000Y-84328000D01*
X83312000Y-84328000D02*
X83312000Y-70612000D01*
X82042000Y-69342000D02*
X77724000Y-69342000D01*
X83312000Y-70612000D02*
X82042000Y-69342000D01*
X77724000Y-69342000D02*
X67564000Y-69342000D01*
X85852000Y-28956000D02*
X82804000Y-28956000D01*
X80264000Y-45720000D02*
X80264000Y-42672000D01*
X80264000Y-42672000D02*
X76708000Y-39116000D01*
X105156000Y-85852000D02*
X105156000Y-88392000D01*
X104140000Y-89408000D02*
X88392000Y-89408000D01*
X105156000Y-88392000D02*
X104140000Y-89408000D01*
X57912000Y-48260000D02*
X54436000Y-51736000D01*
X75692000Y-48260000D02*
X57912000Y-48260000D01*
X53928000Y-56976000D02*
X54436000Y-56468000D01*
X47752000Y-56976000D02*
X53928000Y-56976000D01*
X54436000Y-56468000D02*
X54436000Y-73660000D01*
X54436000Y-51736000D02*
X54436000Y-56468000D01*
X47752000Y-56976000D02*
X47752000Y-33020000D01*
X51228000Y-29544000D02*
X60452000Y-29544000D01*
X47752000Y-33020000D02*
X51228000Y-29544000D01*
X76708000Y-30988000D02*
X76708000Y-39116000D01*
X72644000Y-26924000D02*
X76708000Y-30988000D01*
X116412000Y-47324000D02*
X113284000Y-47324000D01*
X115824000Y-69088000D02*
X118364000Y-66548000D01*
X106680000Y-69088000D02*
X115824000Y-69088000D01*
X118364000Y-49276000D02*
X116412000Y-47324000D01*
X105156000Y-70612000D02*
X106680000Y-69088000D01*
X118364000Y-66548000D02*
X118364000Y-49276000D01*
X105156000Y-85852000D02*
X105156000Y-70612000D01*
X75692000Y-48260000D02*
X77724000Y-50292000D01*
X77724000Y-50292000D02*
X77724000Y-53340000D01*
X60452000Y-28448000D02*
X60452000Y-29544000D01*
X101600000Y-35560000D02*
X91440000Y-25400000D01*
X101600000Y-45212000D02*
X101600000Y-35560000D01*
X63500000Y-25400000D02*
X60452000Y-28448000D01*
X103712000Y-47324000D02*
X101600000Y-45212000D01*
X113284000Y-47324000D02*
X103712000Y-47324000D01*
X82804000Y-25908000D02*
X82296000Y-25400000D01*
X82804000Y-28956000D02*
X82804000Y-25908000D01*
X91440000Y-25400000D02*
X82296000Y-25400000D01*
X72644000Y-26924000D02*
X71120000Y-25400000D01*
X71120000Y-25400000D02*
X63500000Y-25400000D01*
X82296000Y-25400000D02*
X71120000Y-25400000D01*
X82804000Y-53340000D02*
X82804000Y-53848000D01*
X77724000Y-46228000D02*
X77724000Y-45720000D01*
X77724000Y-45720000D02*
X77724000Y-44196000D01*
X75692000Y-42164000D02*
X71120000Y-42164000D01*
X77724000Y-44196000D02*
X75692000Y-42164000D01*
X106840000Y-42324000D02*
X104648000Y-40132000D01*
X113284000Y-42324000D02*
X106840000Y-42324000D01*
X82804000Y-54864000D02*
X82804000Y-53340000D01*
X81788000Y-55880000D02*
X82804000Y-54864000D01*
X71628000Y-55880000D02*
X81788000Y-55880000D01*
X69342000Y-66802000D02*
X70104000Y-66040000D01*
X67564000Y-66802000D02*
X69342000Y-66802000D01*
X70104000Y-57404000D02*
X71628000Y-55880000D01*
X70104000Y-59944000D02*
X70104000Y-57404000D01*
X70104000Y-66040000D02*
X70104000Y-59944000D01*
X70104000Y-59944000D02*
X70104000Y-58928000D01*
X105664000Y-92456000D02*
X71120000Y-92456000D01*
X71120000Y-92456000D02*
X64262000Y-85598000D01*
X107696000Y-85852000D02*
X107696000Y-90424000D01*
X107696000Y-90424000D02*
X105664000Y-92456000D01*
X64262000Y-85598000D02*
X64262000Y-67818000D01*
X65278000Y-66802000D02*
X67564000Y-66802000D01*
X64262000Y-67818000D02*
X65278000Y-66802000D01*
X47752000Y-71976000D02*
X49436000Y-73660000D01*
X47752000Y-61976000D02*
X47752000Y-71976000D01*
X49436000Y-73660000D02*
X49436000Y-78900000D01*
X56134000Y-85598000D02*
X64262000Y-85598000D01*
X49436000Y-78900000D02*
X56134000Y-85598000D01*
X118524000Y-42324000D02*
X113284000Y-42324000D01*
X122428000Y-67564000D02*
X122428000Y-46228000D01*
X117348000Y-72644000D02*
X122428000Y-67564000D01*
X122428000Y-46228000D02*
X118524000Y-42324000D01*
X109728000Y-72644000D02*
X117348000Y-72644000D01*
X107696000Y-74676000D02*
X109728000Y-72644000D01*
X107696000Y-85852000D02*
X107696000Y-74676000D01*
X82804000Y-48768000D02*
X82804000Y-53340000D01*
X79248000Y-48768000D02*
X82804000Y-48768000D01*
X77724000Y-47244000D02*
X79248000Y-48768000D01*
X77724000Y-45720000D02*
X77724000Y-47244000D01*
X62484000Y-45720000D02*
X62484000Y-44196000D01*
X60452000Y-42164000D02*
X58420000Y-42164000D01*
X62484000Y-44196000D02*
X60452000Y-42164000D01*
X60452000Y-42164000D02*
X64008000Y-42164000D01*
X64008000Y-42164000D02*
X70104000Y-36068000D01*
X70104000Y-36068000D02*
X70104000Y-32004000D01*
X67644000Y-29544000D02*
X65452000Y-29544000D01*
X70104000Y-32004000D02*
X67644000Y-29544000D01*
X80304000Y-28956000D02*
X80304000Y-30012000D01*
X83312000Y-34544000D02*
X81280000Y-34544000D01*
X80304000Y-33568000D02*
X80304000Y-30012000D01*
X81280000Y-34544000D02*
X80304000Y-33568000D01*
X82804000Y-35052000D02*
X83312000Y-34544000D01*
X82804000Y-45720000D02*
X82804000Y-35052000D01*
X88352000Y-33304000D02*
X87112000Y-34544000D01*
X88352000Y-28956000D02*
X88352000Y-33304000D01*
X85344000Y-36312000D02*
X87112000Y-34544000D01*
X85344000Y-45720000D02*
X85344000Y-36312000D01*
X104140000Y-53340000D02*
X104648000Y-52832000D01*
X95504000Y-53340000D02*
X104140000Y-53340000D01*
X105156000Y-52324000D02*
X104648000Y-52832000D01*
X113284000Y-52324000D02*
X105156000Y-52324000D01*
X98044000Y-47244000D02*
X98044000Y-39116000D01*
X92964000Y-53340000D02*
X92964000Y-50292000D01*
X92964000Y-50292000D02*
X93472000Y-49784000D01*
X93472000Y-49784000D02*
X96520000Y-49784000D01*
X98044000Y-48260000D02*
X98044000Y-47244000D01*
X96520000Y-49784000D02*
X98044000Y-48260000D01*
X75184000Y-53340000D02*
X75184000Y-50800000D01*
X75184000Y-50800000D02*
X74676000Y-50292000D01*
X59436000Y-51816000D02*
X60960000Y-50292000D01*
X59436000Y-73660000D02*
X59436000Y-51816000D01*
X74676000Y-50292000D02*
X60960000Y-50292000D01*
X65024000Y-54864000D02*
X65024000Y-60452000D01*
X66294000Y-61722000D02*
X67564000Y-61722000D01*
X65024000Y-60452000D02*
X66294000Y-61722000D01*
X65024000Y-54864000D02*
X65024000Y-53340000D01*
X67564000Y-64262000D02*
X64770000Y-64262000D01*
X62484000Y-60452000D02*
X62484000Y-53340000D01*
X64770000Y-64262000D02*
X62484000Y-61976000D01*
X62484000Y-61976000D02*
X62484000Y-60452000D01*
X73660000Y-60960000D02*
X73660000Y-66040000D01*
X74422000Y-66802000D02*
X77724000Y-66802000D01*
X73660000Y-66040000D02*
X74422000Y-66802000D01*
X73660000Y-60960000D02*
X73660000Y-60452000D01*
X107696000Y-60452000D02*
X107696000Y-62992000D01*
X105664000Y-58420000D02*
X107696000Y-60452000D01*
X75184000Y-58420000D02*
X105664000Y-58420000D01*
X73660000Y-59944000D02*
X75184000Y-58420000D01*
X73660000Y-60960000D02*
X73660000Y-59944000D01*
X77724000Y-64262000D02*
X81534000Y-64262000D01*
X81534000Y-64262000D02*
X86868000Y-69596000D01*
X94996000Y-72136000D02*
X94996000Y-85852000D01*
X86868000Y-69596000D02*
X93980000Y-69596000D01*
X94996000Y-70612000D02*
X94996000Y-72136000D01*
X93980000Y-69596000D02*
X94996000Y-70612000D01*
X97536000Y-85852000D02*
X97536000Y-68072000D01*
X97536000Y-68072000D02*
X96012000Y-66548000D01*
X96012000Y-66548000D02*
X87884000Y-66548000D01*
X83058000Y-61722000D02*
X77724000Y-61722000D01*
X87884000Y-66548000D02*
X83058000Y-61722000D01*
M02*
