G04 #@! TF.GenerationSoftware,KiCad,Pcbnew,(5.1.10)-1*
G04 #@! TF.CreationDate,2022-06-15T22:58:40-06:00*
G04 #@! TF.ProjectId,Control,436f6e74-726f-46c2-9e6b-696361645f70,rev?*
G04 #@! TF.SameCoordinates,Original*
G04 #@! TF.FileFunction,Copper,L2,Bot*
G04 #@! TF.FilePolarity,Positive*
%FSLAX46Y46*%
G04 Gerber Fmt 4.6, Leading zero omitted, Abs format (unit mm)*
G04 Created by KiCad (PCBNEW (5.1.10)-1) date 2022-06-15 22:58:40*
%MOMM*%
%LPD*%
G01*
G04 APERTURE LIST*
G04 #@! TA.AperFunction,ComponentPad*
%ADD10C,3.500000*%
G04 #@! TD*
G04 #@! TA.AperFunction,ComponentPad*
%ADD11O,2.100000X2.900000*%
G04 #@! TD*
G04 #@! TA.AperFunction,ComponentPad*
%ADD12R,2.100000X2.900000*%
G04 #@! TD*
G04 #@! TA.AperFunction,ComponentPad*
%ADD13O,2.500000X2.500000*%
G04 #@! TD*
G04 #@! TA.AperFunction,ComponentPad*
%ADD14R,3.500000X3.500000*%
G04 #@! TD*
G04 #@! TA.AperFunction,ComponentPad*
%ADD15R,2.000000X2.500000*%
G04 #@! TD*
G04 #@! TA.AperFunction,ComponentPad*
%ADD16O,2.000000X2.500000*%
G04 #@! TD*
G04 #@! TA.AperFunction,ComponentPad*
%ADD17R,2.500000X1.600000*%
G04 #@! TD*
G04 #@! TA.AperFunction,ComponentPad*
%ADD18O,2.500000X1.700000*%
G04 #@! TD*
G04 #@! TA.AperFunction,ComponentPad*
%ADD19C,2.300000*%
G04 #@! TD*
G04 #@! TA.AperFunction,ComponentPad*
%ADD20C,2.000000*%
G04 #@! TD*
G04 APERTURE END LIST*
D10*
X60452000Y-34544000D03*
X65452000Y-34544000D03*
X65452000Y-29544000D03*
X60452000Y-29544000D03*
D11*
X107696000Y-62992000D03*
X105156000Y-62992000D03*
X102616000Y-62992000D03*
X100076000Y-62992000D03*
X97536000Y-62992000D03*
X94996000Y-62992000D03*
X92456000Y-62992000D03*
X89916000Y-62992000D03*
X89916000Y-85852000D03*
X92456000Y-85852000D03*
X94996000Y-85852000D03*
X97536000Y-85852000D03*
X100076000Y-85852000D03*
X102616000Y-85852000D03*
D12*
X107696000Y-85852000D03*
D11*
X105156000Y-85852000D03*
D13*
X58420000Y-42164000D03*
X71120000Y-42164000D03*
D10*
X47752000Y-56976000D03*
D14*
X47752000Y-61976000D03*
D15*
X62484000Y-45720000D03*
D16*
X95504000Y-53340000D03*
X65024000Y-45720000D03*
X92964000Y-53340000D03*
X67564000Y-45720000D03*
X90424000Y-53340000D03*
X70104000Y-45720000D03*
X87884000Y-53340000D03*
X72644000Y-45720000D03*
X85344000Y-53340000D03*
X75184000Y-45720000D03*
X82804000Y-53340000D03*
X77724000Y-45720000D03*
X80264000Y-53340000D03*
X80264000Y-45720000D03*
X77724000Y-53340000D03*
X82804000Y-45720000D03*
X75184000Y-53340000D03*
X85344000Y-45720000D03*
X72644000Y-53340000D03*
X87884000Y-45720000D03*
X70104000Y-53340000D03*
X90424000Y-45720000D03*
X67564000Y-53340000D03*
X92964000Y-45720000D03*
X65024000Y-53340000D03*
X95504000Y-45720000D03*
X62484000Y-53340000D03*
D13*
X104648000Y-52832000D03*
X104648000Y-40132000D03*
D14*
X98044000Y-39116000D03*
D10*
X93044000Y-39116000D03*
D14*
X59436000Y-73660000D03*
D10*
X54436000Y-73660000D03*
X49436000Y-73660000D03*
X113284000Y-42324000D03*
X113284000Y-47324000D03*
D14*
X113284000Y-52324000D03*
D17*
X77724000Y-61722000D03*
X77724000Y-64262000D03*
X77724000Y-66802000D03*
X77724000Y-69342000D03*
X77724000Y-71882000D03*
X77724000Y-74422000D03*
D18*
X67564000Y-61722000D03*
D17*
X67564000Y-64262000D03*
X67564000Y-66802000D03*
X67564000Y-69342000D03*
X67564000Y-71882000D03*
X67564000Y-74422000D03*
D19*
X83312000Y-34544000D03*
X87112000Y-34544000D03*
D20*
X82804000Y-28956000D03*
X80304000Y-28956000D03*
X85852000Y-28956000D03*
X88352000Y-28956000D03*
M02*
