M48
; DRILL file {KiCad (5.1.10)-1} date 06/15/22 21:53:41
; FORMAT={-:-/ absolute / inch / decimal}
; #@! TF.CreationDate,2022-06-15T21:53:41-06:00
; #@! TF.GenerationSoftware,Kicad,Pcbnew,(5.1.10)-1
FMAT,2
INCH
T1C0.0315
T2C0.0394
T3C0.0400
T4C0.0591
T5C0.0827
%
G90
G05
T1
X2.46Y-1.8
X2.46Y-2.1
X2.56Y-1.8
X2.56Y-2.1
X2.66Y-1.8
X2.66Y-2.1
X2.76Y-1.8
X2.76Y-2.1
X2.86Y-1.8
X2.86Y-2.1
X2.96Y-1.8
X2.96Y-2.1
X3.06Y-1.8
X3.06Y-2.1
X3.16Y-1.8
X3.16Y-2.1
X3.1616Y-1.14
X3.26Y-1.14
X3.26Y-1.8
X3.26Y-2.1
X3.28Y-1.36
X3.36Y-1.8
X3.36Y-2.1
X3.38Y-1.14
X3.4296Y-1.36
X3.46Y-1.8
X3.46Y-2.1
X3.4784Y-1.14
X3.54Y-2.48
X3.54Y-3.38
X3.56Y-1.8
X3.56Y-2.1
X3.64Y-2.48
X3.64Y-3.38
X3.66Y-1.8
X3.66Y-2.1
X3.74Y-2.48
X3.74Y-3.38
X3.76Y-1.8
X3.76Y-2.1
X3.84Y-2.48
X3.84Y-3.38
X3.94Y-2.48
X3.94Y-3.38
X4.04Y-2.48
X4.04Y-3.38
X4.14Y-2.48
X4.14Y-3.38
X4.24Y-2.48
X4.24Y-3.38
T2
X2.3Y-1.66
X2.66Y-2.43
X2.8Y-1.66
X4.12Y-1.58
X4.12Y-2.08
T3
X2.66Y-2.53
X2.66Y-2.63
X2.66Y-2.73
X2.66Y-2.83
X2.66Y-2.93
X3.06Y-2.43
X3.06Y-2.53
X3.06Y-2.63
X3.06Y-2.73
X3.06Y-2.83
X3.06Y-2.93
T4
X1.88Y-2.2431
X1.88Y-2.44
X1.9463Y-2.9
X2.1431Y-2.9
X2.34Y-2.9
X2.38Y-1.1631
X2.38Y-1.36
X2.5769Y-1.1631
X2.5769Y-1.36
X3.6631Y-1.54
X3.86Y-1.54
X4.46Y-1.6663
X4.46Y-1.8631
X4.46Y-2.06
T5
X1.76Y-1.08
X1.8Y-3.54
X4.76Y-1.08
X4.82Y-3.54
T0
M30
