M48
; DRILL file {KiCad (5.1.0)-1} date 2/19/2020 4:44:59 PM
; FORMAT={-:-/ absolute / metric / decimal}
; #@! TF.CreationDate,2020-02-19T16:44:59-06:00
; #@! TF.GenerationSoftware,Kicad,Pcbnew,(5.1.0)-1
; #@! TF.FileFunction,Plated,1,2,PTH
FMAT,2
METRIC
T1C0.800
T2C1.100
%
G90
G05
T1
X101.55Y-41.865
X101.55Y-44.405
X34.425Y-40.5
X34.425Y-45.5
X53.35Y-45.65
X53.35Y-58.35
X54.025Y-68.825
X59.025Y-68.825
X70.075Y-45.75
X70.075Y-48.29
X70.075Y-50.83
X70.075Y-53.37
X70.075Y-55.91
X70.075Y-58.45
X70.075Y-60.99
X70.075Y-63.53
X92.935Y-45.75
X92.935Y-48.29
X92.935Y-50.83
X92.935Y-53.37
X92.935Y-55.91
X92.935Y-58.45
X92.935Y-60.99
X92.935Y-63.53
X60.025Y-45.75
X60.025Y-58.45
X112.3Y-40.675
X112.3Y-45.675
X44.0Y-68.825
X49.0Y-68.825
X34.3Y-25.8
X34.3Y-30.8
X45.925Y-45.7
X45.925Y-58.4
X102.025Y-68.125
X107.025Y-68.125
X112.025Y-68.125
X34.1Y-68.775
X39.1Y-68.775
X49.55Y-29.45
X105.43Y-29.45
T2
X101.55Y-39.325
T0
M30
